# xmcd
#
# Track frame offsets: 
#        150
#        9909
#        18782
#        31739
#        42189
#        52465
#        66549
#        75847
#        87111
#        98043
#        110014
#        119293
#        131268
#        142392
#        153830
#        165594
#        174275
#        185012
#
# Disc length: 2634 seconds
#
# Revision: 0
# Processed by: cddbd v1.5.1PL2 Copyright (c) Steve Scherf et al.
# Submitted via: ExactAudioCopy v0.95a4
#
DISCID=e10a4812
DTITLE=Johnny Winter - An Introduction To
DYEAR=2006
DGENRE=Rock and Roll
TTITLE0=Creepy 
TTITLE1=School Day Blues 
TTITLE2=You Know I Love You 
TTITLE3=That's What Love Does
TTITLE4=Shed So Many Tears
TTITLE5=Ease My Pain 
TTITLE6=Road Runner 
TTITLE7=Guy You Left Behind, The
TTITLE8=Broke And Lonely
TTITLE9=Crying In My Heart
TTITLE10=Reeling And Rocking
TTITLE11=Kiss Tomorrow Goodbye
TTITLE12=Gangster Of Love
TTITLE13=Eternally
TTITLE14=You'll Be The Death Of Me 
TTITLE15=I Had To Cry
TTITLE16=Gone For Bad
TTITLE17=Leavin' Blues
EXTD=
EXTT0=
EXTT1=
EXTT2=
EXTT3=
EXTT4=
EXTT5=
EXTT6=
EXTT7=
EXTT8=
EXTT9=
EXTT10=
EXTT11=
EXTT12=
EXTT13=
EXTT14=
EXTT15=
EXTT16=
EXTT17=
PLAYORDER=
